<svg id="Layer_1" data-name="Layer 1" xmlns="http://www.w3.org/2000/svg" viewBox="0 0 57.73 23.1"><defs><style>.cls-1{fill:#e41a23;}.cls-2{fill:#fbc406;}</style></defs><title>logo-guia</title><path class="cls-1" d="M32.7,9a10.63,10.63,0,0,1-.9,1.1l-.4.4c-.1.1-.3.2-.4.3a.76.76,0,0,1-.4.2.6.6,0,0,1-.4.1c-.2,0-.3-.1-.3-.2a1.48,1.48,0,0,1-.1-.7,4.48,4.48,0,0,1,.1-1.1c0-.2.1-.6.1-.9s.1-.7.2-1.1a3.75,3.75,0,0,0,.1-1c0-.2,0-.3-.1-.4s-.1-.2-.1-.3-.1-.1-.2-.1H29c-.1,0-.1,0-.2-.1s-.1-.1-.2-.1-.1-.1-.1-.2l-.2-.2a.37.37,0,0,0-.3-.1,2.66,2.66,0,0,0-1.2.3,4.13,4.13,0,0,0-1.1.7,5.24,5.24,0,0,0-1,1.1A5.67,5.67,0,0,0,23.9,8a7.84,7.84,0,0,0-.5,1.4,5,5,0,0,0-.2,1.2c-.1.1-.2.1-.3.2a3.51,3.51,0,0,1-.8.5,2.54,2.54,0,0,1-.7.2.52.52,0,0,1-.4-.2,1.27,1.27,0,0,1-.1-.6,2.77,2.77,0,0,1,.1-.9,5,5,0,0,1,.2-1.2c.1-.4.2-.7.3-1.1s.2-.7.3-1a3.09,3.09,0,0,0,.2-.8,1.27,1.27,0,0,0,.1-.6c0-.2,0-.3-.1-.4a.75.75,0,0,0-.5-.1H21c-.2,0-.3.1-.5.2s-.3.2-.5.3a1.38,1.38,0,0,0-.3.4c-.1.4-.2.9-.4,1.5A9,9,0,0,0,19,8.6c-.1.5-.2,1.1-.3,1.6v.2c-.1.1-.2.1-.3.2a4.35,4.35,0,0,1-.7.4l-.6.3a1.09,1.09,0,0,1-.5.1.37.37,0,0,1-.3-.1c-.1-.1-.1-.1-.1-.2a.76.76,0,0,0-.1-.4v-.5a1.09,1.09,0,0,1,.1-.5c0-.2.1-.5.1-.8s.1-.6.2-1,.1-.7.2-1a2.77,2.77,0,0,0,.1-.9c0-.3.1-.5.1-.7s-.1-.3-.3-.4a1.45,1.45,0,0,0-.7-.2,1.48,1.48,0,0,0-.7.1c-.2.1-.4.2-.4.3l-.9,4.6a1.07,1.07,0,0,1-.2.6c-.1.2-.2.3-.3.5s-.3.2-.4.3a.6.6,0,0,1-.4.1c-.1,0-.2,0-.2-.1s-.1-.1-.2-.2-.1-.2-.1-.3V10c0-.2.1-.4.1-.7a4.4,4.4,0,0,1,.2-1c.1-.4.1-.8.2-1.2s.1-.8.2-1.2.1-.7.2-1.1c0-.1-.1-.2-.2-.3s-.4-.1-.7-.1a.76.76,0,0,0-.5.2.78.78,0,0,0-.4.4c-.1.2-.2.3-.3.5a1.42,1.42,0,0,0-.2.6.9.9,0,0,0-.1.5c0,.2-.1.3-.1.4A15.66,15.66,0,0,0,10,9.5c0,.3-.1.5-.1.8h0l-.2.2a9,9,0,0,1-.9,1,3.19,3.19,0,0,1-.7.6,2.09,2.09,0,0,1-.6.4,25.12,25.12,0,0,0,.4-2.7,5.16,5.16,0,0,0,.2-1.1,3.75,3.75,0,0,0,.1-1c0-.3.1-.6.1-.9V6.2c0-.2,0-.3-.1-.4s-.1-.2-.1-.3,0-.2-.1-.2H7.1c-.1,0-.1,0-.2-.1s-.1-.1-.2-.1-.1-.1-.1-.2-.1-.2-.2-.2a.37.37,0,0,0-.3-.1,2.66,2.66,0,0,0-1.2.3,4.73,4.73,0,0,0-1.2.7,5.24,5.24,0,0,0-1,1.1,8.34,8.34,0,0,0-.8,1.2,12.13,12.13,0,0,0-.5,1.4,6.75,6.75,0,0,0-.2,1.4,3.59,3.59,0,0,0,.2,1.1,2.18,2.18,0,0,0,.5.8,3,3,0,0,0,.7.5,3.09,3.09,0,0,0,.8.2,1.93,1.93,0,0,0,1-.3,3.59,3.59,0,0,0,1-.7l-.2.8c-.4.4-.9.7-1.3,1.1L2.7,15.4c-.4.4-.7.8-1.1,1.2L.7,17.8c-.2.4-.4.7-.6,1.1a2.92,2.92,0,0,0-.2.9,2,2,0,0,0,.2.9,1.21,1.21,0,0,0,.5.5,4.88,4.88,0,0,0,.7.3c.2,0,.5.1.7.1a3.19,3.19,0,0,0,1.4-.3,7.46,7.46,0,0,0,1.2-.7,4.81,4.81,0,0,0,.9-1.1A5.48,5.48,0,0,0,6.3,18c.2-.5.4-1.1.6-1.7a10.62,10.62,0,0,0,.4-1.9c.6-.4,1.1-.7,1.7-1.1a4.23,4.23,0,0,1,.7-.5c.1-.1.3-.2.4-.4a1.38,1.38,0,0,0,.3.4.55.55,0,0,0,.5.3,1.27,1.27,0,0,0,.6.1,1.7,1.7,0,0,0,.7-.1,3,3,0,0,0,.8-.4c.2-.2.5-.4.7-.6a5.72,5.72,0,0,0,.7-.8c.1.3.1.5.2.8l.3.6c.1.2.3.3.4.4a1.27,1.27,0,0,0,.6.1,1.7,1.7,0,0,0,.7-.1,2.61,2.61,0,0,0,.8-.3,3,3,0,0,0,.8-.4,2.19,2.19,0,0,0,.5-.3h0l.3.6a1,1,0,0,0,.5.4,2,2,0,0,0,.8.1,5.16,5.16,0,0,0,1.1-.2,3.7,3.7,0,0,0,1.1-.5l.9-.6a2.09,2.09,0,0,0,.4.6,3,3,0,0,0,.7.5,3.09,3.09,0,0,0,.8.2,2.2,2.2,0,0,0,.8-.1c.3-.1.5-.2.8-.3a3,3,0,0,0,.7-.5c.2-.2.4-.3.5-.5a2.33,2.33,0,0,0,.7,1.1,1.28,1.28,0,0,0,1,.4,3.55,3.55,0,0,0,1-.2l.9-.6c.3-.2.5-.5.8-.7a4.35,4.35,0,0,1,.6-.7ZM4.8,16.4l-.3.9a9.29,9.29,0,0,1-.5,1,5.58,5.58,0,0,1-.5.8l-.6.6a1.85,1.85,0,0,1-.7.2c-.2,0-.4-.1-.4-.3a1.09,1.09,0,0,1,.1-.5,5.74,5.74,0,0,1,.4-.7,5.58,5.58,0,0,0,.5-.8,5,5,0,0,1,.7-.8,4.62,4.62,0,0,1,.7-.7c.2-.2.5-.4.7-.6,0,.3-.1.6-.1.9M5.8,9a2.54,2.54,0,0,1-.2.7,6.89,6.89,0,0,1-.3.8,1.79,1.79,0,0,1-.5.7.86.86,0,0,1-.6.3c-.1,0-.3,0-.3-.1s-.2-.2-.2-.3-.1-.2-.1-.4v-.4a2.2,2.2,0,0,1,.1-.8L4,8.6a1.8,1.8,0,0,1,.4-.9A3,3,0,0,1,4.9,7a1.79,1.79,0,0,1,.7-.5,1.85,1.85,0,0,1,.7-.2ZM27.7,9a2.54,2.54,0,0,1-.2.7,6.89,6.89,0,0,1-.3.8,1.79,1.79,0,0,1-.5.7.86.86,0,0,1-.6.3c-.1,0-.3,0-.3-.1s-.2-.2-.2-.3-.1-.2-.1-.4v-.4a2.2,2.2,0,0,1,.1-.8l.3-.9a4.05,4.05,0,0,1,.5-.9A4.35,4.35,0,0,1,27,7a1.79,1.79,0,0,1,.7-.5,1.85,1.85,0,0,1,.7-.2Z" transform="translate(0.1 -0.5)"/><path class="cls-2" d="M23.5,1.2a1.38,1.38,0,0,0-.3-.4.76.76,0,0,0-.5-.2c-.2,0-.4-.1-.6-.1a1.88,1.88,0,0,0-.8.2,1,1,0,0,0-.5.4c-.1.2-.2.3-.3.5a.9.9,0,0,0-.1.5,1.28,1.28,0,0,0,.4,1,1.9,1.9,0,0,0,1.2.4,2,2,0,0,0,.8-.1,1,1,0,0,0,.5-.4c.1-.2.3-.3.3-.5a1.27,1.27,0,0,0,.1-.6,6.37,6.37,0,0,0-.2-.7" transform="translate(0.1 -0.5)"/><path class="cls-2" d="M15.3,22.8a1.42,1.42,0,0,1-.6-.2.84.84,0,0,1-.2-.7V18.8a2.13,2.13,0,0,0-.7-1.5,2.13,2.13,0,0,0-1.6-.7h0a2,2,0,0,0-1.6.7,2.63,2.63,0,0,0-.7,1.5v3.1a1.45,1.45,0,0,1-.2.7c-.2.2-.3.2-.6.2a1.42,1.42,0,0,1-.6-.2.84.84,0,0,1-.2-.7v-3a3.76,3.76,0,0,1,3.8-3.8h.1a4.14,4.14,0,0,1,2.7,1.1c.1.1.2.3.3.4.1-.1.2-.3.3-.4a3.69,3.69,0,0,1,2.7-1.1h.1A4.14,4.14,0,0,1,21,16.2a3.69,3.69,0,0,1,1.1,2.7v3a1.45,1.45,0,0,1-.2.7c-.2.2-.3.2-.6.2a1.42,1.42,0,0,1-.6-.2.84.84,0,0,1-.2-.7V18.8a2.41,2.41,0,0,0-2.3-2.2h0a2,2,0,0,0-1.6.7,2.63,2.63,0,0,0-.7,1.5v3.1a1.45,1.45,0,0,1-.2.7c0,.1-.2.2-.4.2Z" transform="translate(0.1 -0.5)"/><path class="cls-2" d="M27.2,22.8a4.14,4.14,0,0,1-2.7-1.1A3.69,3.69,0,0,1,23.4,19V16a1.45,1.45,0,0,1,.2-.7c.2-.2.3-.2.6-.2a1.42,1.42,0,0,1,.6.2.84.84,0,0,1,.2.7v3.1a2.41,2.41,0,0,0,2.3,2.2h0a2,2,0,0,0,1.6-.7,2.63,2.63,0,0,0,.7-1.5V16a1.45,1.45,0,0,1,.2-.7c.2-.2.3-.2.6-.2a1.42,1.42,0,0,1,.6.2.84.84,0,0,1,.2.7v3a3.76,3.76,0,0,1-3.8,3.8Z" transform="translate(0.1 -0.5)"/><path class="cls-2" d="M33,22.8a1.42,1.42,0,0,1-.6-.2c-.2-.2-.2-.3-.2-.6V15.8a1.42,1.42,0,0,1,.2-.6A.73.73,0,0,1,33,15a1.42,1.42,0,0,1,.6.2c.2.2.2.3.2.6V22a1.42,1.42,0,0,1-.2.6,1.42,1.42,0,0,1-.6.2" transform="translate(0.1 -0.5)"/><path class="cls-2" d="M36.7,15V13.5a1.42,1.42,0,0,1,.2-.6c.2-.2.3-.2.6-.2a1.42,1.42,0,0,1,.6.2c.2.2.2.3.2.6V15h.9a1.42,1.42,0,0,1,.6.2c.2.2.2.3.2.6a1.42,1.42,0,0,1-.2.6c-.2.2-.3.2-.6.2h-.9V22a1.42,1.42,0,0,1-.2.6c-.2.2-.3.2-.6.2a1.42,1.42,0,0,1-.6-.2c-.2-.2-.2-.3-.2-.6V16.6h-.9a1.42,1.42,0,0,1-.6-.2,1.42,1.42,0,0,1-.2-.6,1.42,1.42,0,0,1,.2-.6c.2-.2.3-.2.6-.2Z" transform="translate(0.1 -0.5)"/><path class="cls-2" d="M46.4,16.1a3.62,3.62,0,0,1,1.1,2.7,3.69,3.69,0,0,1-1.1,2.7,3.62,3.62,0,0,1-2.7,1.1A3.69,3.69,0,0,1,41,21.5a3.62,3.62,0,0,1-1.1-2.7A3.69,3.69,0,0,1,41,16.1,3.62,3.62,0,0,1,43.7,15a4,4,0,0,1,2.7,1.1m-2.8.5a2,2,0,0,0-1.6.7,2.18,2.18,0,0,0,0,3.2,2.13,2.13,0,0,0,1.6.7,2,2,0,0,0,1.6-.7,2.57,2.57,0,0,0,.7-1.6,2,2,0,0,0-.7-1.6,1.86,1.86,0,0,0-1.6-.7" transform="translate(0.1 -0.5)"/><path class="cls-2" d="M57.2,17.8a1.61,1.61,0,0,0-1.1-.5H54.6V15.8a1.6,1.6,0,0,0-3.2,0v4.6H56a1.72,1.72,0,0,0,1.6-1.6,1,1,0,0,0-.4-1" transform="translate(0.1 -0.5)"/><path class="cls-1" d="M49,20a1.61,1.61,0,0,0,1.1.5h1.5V22a1.6,1.6,0,0,0,3.2,0V17.4H50A1.72,1.72,0,0,0,48.4,19a2.66,2.66,0,0,0,.6,1" transform="translate(0.1 -0.5)"/></svg>